# xmcd
#
# Track frame offsets:
#	150
#	14475
#	31051
#	47402
#	64428
#	77477
#	95626
#	114676
#	134176
#	150150
#	164625
#	192973
#	205947
#	220798
#	243373
#	259198
#
# Disc length: 3675 seconds
#
# Revision: 0
# Processed by: cddbd v1.5.2PL0 Copyright (c) Steve Scherf et al.
# Submitted via: EZCDAudioConverter 2.2.2.1
#
DISCID=e00e5910
DTITLE=Blues Karloff - Ready For Judgement Day 
DYEAR=2014
DGENRE=Blues Rock
TTITLE0=Who's Been Talking
TTITLE1=Train Kept-a-Rollin
TTITLE2=Boom Boom
TTITLE3=The Hunter
TTITLE4=Inside Out
TTITLE5=Better by You, Better by Me
TTITLE6=Oh Pretty Woman
TTITLE7=Rock Me Baby
TTITLE8=Shame, Shame, Shame
TTITLE9=Got Love If You Want It
TTITLE10=Mean Ol' Woman Blues
TTITLE11=Neighbour, Neighbour
TTITLE12=I'm Ready
TTITLE13=If I Had Possession over Judgment Day
TTITLE14=Big Boss Man
TTITLE15=Crossroad Blues
EXTD=
EXTT0=
EXTT1=
EXTT2=
EXTT3=
EXTT4=
EXTT5=
EXTT6=
EXTT7=
EXTT8=
EXTT9=
EXTT10=
EXTT11=
EXTT12=
EXTT13=
EXTT14=
EXTT15=
PLAYORDER=
